<svg xmlns="http://www.w3.org/2000/svg" xmlns:xlink="http://www.w3.org/1999/xlink" width="256" zoomAndPan="magnify" viewBox="0 0 192 191.999996" height="256" preserveAspectRatio="xMidYMid meet" version="1.0"><defs><clipPath id="cbb8339e19"><path d="M 168 4.300781 L 189.535156 4.300781 L 189.535156 26 L 168 26 Z M 168 4.300781 " clip-rule="nonzero"/></clipPath><clipPath id="768c6348b4"><path d="M 2.785156 10 L 170 10 L 170 20 L 2.785156 20 Z M 2.785156 10 " clip-rule="nonzero"/></clipPath><clipPath id="8b3bf18f8d"><path d="M 11 31 L 169 31 L 169 188.050781 L 11 188.050781 Z M 11 31 " clip-rule="nonzero"/></clipPath></defs><path fill="#ccd1d9" d="M 94.625 75.148438 C 94.625 75.445312 94.597656 75.742188 94.539062 76.03125 C 94.480469 76.320312 94.394531 76.605469 94.28125 76.878906 C 94.167969 77.152344 94.027344 77.414062 93.863281 77.660156 C 93.699219 77.90625 93.511719 78.136719 93.300781 78.34375 C 93.09375 78.554688 92.863281 78.742188 92.617188 78.90625 C 92.371094 79.070312 92.109375 79.210938 91.835938 79.324219 C 91.5625 79.4375 91.28125 79.523438 90.988281 79.582031 C 90.699219 79.640625 90.402344 79.667969 90.105469 79.667969 C 89.808594 79.667969 89.515625 79.640625 89.226562 79.582031 C 88.933594 79.523438 88.652344 79.4375 88.378906 79.324219 C 88.105469 79.210938 87.84375 79.070312 87.597656 78.90625 C 87.351562 78.742188 87.121094 78.554688 86.914062 78.34375 C 86.703125 78.136719 86.515625 77.90625 86.351562 77.660156 C 86.1875 77.414062 86.046875 77.152344 85.933594 76.878906 C 85.820312 76.605469 85.734375 76.320312 85.675781 76.03125 C 85.617188 75.742188 85.589844 75.445312 85.589844 75.148438 C 85.589844 74.851562 85.617188 74.558594 85.675781 74.269531 C 85.734375 73.976562 85.820312 73.695312 85.933594 73.421875 C 86.046875 73.148438 86.1875 72.886719 86.351562 72.640625 C 86.515625 72.394531 86.703125 72.164062 86.914062 71.953125 C 87.121094 71.746094 87.351562 71.558594 87.597656 71.394531 C 87.84375 71.226562 88.105469 71.089844 88.378906 70.976562 C 88.652344 70.863281 88.933594 70.777344 89.226562 70.71875 C 89.515625 70.660156 89.808594 70.632812 90.105469 70.632812 C 90.402344 70.632812 90.699219 70.660156 90.988281 70.71875 C 91.28125 70.777344 91.5625 70.863281 91.835938 70.976562 C 92.109375 71.089844 92.371094 71.226562 92.617188 71.394531 C 92.863281 71.558594 93.09375 71.746094 93.300781 71.953125 C 93.511719 72.164062 93.699219 72.394531 93.863281 72.640625 C 94.027344 72.886719 94.167969 73.148438 94.28125 73.421875 C 94.394531 73.695312 94.480469 73.976562 94.539062 74.269531 C 94.597656 74.558594 94.625 74.851562 94.625 75.148438 Z M 94.625 75.148438 " fill-opacity="1" fill-rule="nonzero"/><g clip-path="url(#cbb8339e19)"><path fill="#e6e9ed" d="M 178.957031 4.332031 C 184.769531 4.332031 189.496094 9.058594 189.496094 14.875 C 189.496094 20.71875 184.769531 25.417969 178.957031 25.417969 C 174.765625 25.417969 171.121094 22.976562 169.4375 19.390625 C 168.773438 18.035156 168.414062 16.5 168.414062 14.875 C 168.414062 13.246094 168.773438 11.710938 169.4375 10.355469 C 171.125 6.800781 174.769531 4.332031 178.957031 4.332031 Z M 178.957031 4.332031 " fill-opacity="1" fill-rule="nonzero"/></g><g clip-path="url(#768c6348b4)"><path fill="#ccd1d9" d="M 2.824219 10.355469 L 169.4375 10.355469 C 168.773438 11.710938 168.414062 13.246094 168.414062 14.875 C 168.414062 16.5 168.773438 18.035156 169.4375 19.390625 L 2.824219 19.390625 Z M 2.824219 10.355469 " fill-opacity="1" fill-rule="nonzero"/></g><g clip-path="url(#8b3bf18f8d)"><path fill="#965353" d="M 44.988281 45.71875 C 57.730469 36.683594 73.300781 31.382812 90.105469 31.382812 C 106.972656 31.382812 122.570312 36.710938 135.34375 45.777344 C 138.539062 48.035156 141.550781 50.535156 144.351562 53.277344 C 159.199219 67.496094 168.414062 87.527344 168.414062 109.699219 C 168.414062 152.953125 133.355469 188.015625 90.105469 188.015625 C 46.855469 188.015625 11.800781 152.953125 11.800781 109.699219 C 11.800781 87.496094 21.042969 67.40625 35.953125 53.152344 C 38.753906 50.449219 41.765625 47.949219 44.988281 45.71875 Z M 159.378906 109.699219 C 159.378906 71.445312 128.355469 40.417969 90.105469 40.417969 C 51.855469 40.417969 20.835938 71.445312 20.835938 109.699219 C 20.835938 147.957031 51.855469 178.984375 90.105469 178.984375 C 128.355469 178.984375 159.378906 147.957031 159.378906 109.699219 Z M 159.378906 109.699219 " fill-opacity="1" fill-rule="nonzero"/></g><path fill="#656d78" d="M 144.378906 19.390625 L 144.378906 53.25 L 144.351562 53.28125 C 141.546875 50.539062 138.535156 48.039062 135.34375 45.78125 L 135.34375 19.390625 Z M 144.378906 19.390625 " fill-opacity="1" fill-rule="nonzero"/><path fill="#844747" d="M 132.238281 127.863281 L 129.261719 127.863281 L 129.261719 118.828125 C 129.261719 97.199219 111.730469 79.667969 90.105469 79.667969 C 92.605469 79.667969 94.625 77.648438 94.625 75.148438 C 94.625 72.652344 92.605469 70.632812 90.105469 70.632812 C 87.605469 70.632812 85.589844 72.652344 85.589844 75.148438 C 85.589844 77.648438 87.605469 79.667969 90.105469 79.667969 C 68.480469 79.667969 50.953125 97.199219 50.953125 118.828125 L 50.953125 127.863281 L 47.941406 127.863281 L 47.941406 130.878906 C 47.941406 134.222656 50.621094 136.902344 53.964844 136.902344 L 126.25 136.902344 C 129.5625 136.902344 132.238281 134.222656 132.238281 130.878906 Z M 90.105469 40.417969 C 128.355469 40.417969 159.378906 71.445312 159.378906 109.699219 C 159.378906 147.957031 128.355469 178.984375 90.105469 178.984375 C 51.855469 178.984375 20.835938 147.957031 20.835938 109.699219 C 20.835938 71.445312 51.855469 40.417969 90.105469 40.417969 Z M 90.105469 40.417969 " fill-opacity="1" fill-rule="nonzero"/><path fill="#e6e9ed" d="M 132.238281 127.863281 L 132.238281 130.878906 C 132.238281 134.222656 129.558594 136.902344 126.25 136.902344 L 53.964844 136.902344 C 50.621094 136.902344 47.941406 134.222656 47.941406 130.878906 L 47.941406 127.863281 Z M 132.238281 127.863281 " fill-opacity="1" fill-rule="nonzero"/><path fill="#e6e9ed" d="M 129.261719 118.828125 L 129.261719 127.863281 L 50.953125 127.863281 L 50.953125 118.828125 C 50.953125 97.199219 68.480469 79.667969 90.105469 79.667969 C 111.730469 79.667969 129.261719 97.199219 129.261719 118.828125 Z M 129.261719 118.828125 " fill-opacity="1" fill-rule="nonzero"/><path fill="#ccd1d9" d="M 90.105469 79.667969 C 88.574219 79.667969 87.070312 79.78125 85.582031 79.953125 C 105.074219 82.195312 120.214844 98.734375 120.214844 118.828125 L 120.214844 127.863281 L 129.261719 127.863281 L 129.261719 118.828125 C 129.261719 97.199219 111.730469 79.667969 90.105469 79.667969 Z M 90.105469 79.667969 " fill-opacity="1" fill-rule="nonzero"/><path fill="#656d78" d="M 44.988281 19.390625 L 44.988281 45.71875 C 41.765625 47.949219 38.753906 50.449219 35.953125 53.160156 L 35.953125 19.390625 Z M 44.988281 19.390625 " fill-opacity="1" fill-rule="nonzero"/><path fill="#f5f7fa" d="M 132.289062 130.871094 L 47.933594 130.871094 C 46.269531 130.871094 44.921875 129.523438 44.921875 127.859375 C 44.921875 126.191406 46.269531 124.847656 47.933594 124.847656 L 132.289062 124.847656 C 133.953125 124.847656 135.300781 126.191406 135.300781 127.859375 C 135.300781 129.523438 133.953125 130.871094 132.289062 130.871094 Z M 132.289062 130.871094 " fill-opacity="1" fill-rule="nonzero"/></svg>